<?xml version="1.0" encoding="utf-8"?>
<!-- Generator: Adobe Illustrator 16.0.3, SVG Export Plug-In . SVG Version: 6.00 Build 0)  -->
<!DOCTYPE svg PUBLIC "-//W3C//DTD SVG 1.1//EN" "http://www.w3.org/Graphics/SVG/1.1/DTD/svg11.dtd">
<svg version="1.1" id="Livello_1" xmlns="http://www.w3.org/2000/svg" xmlns:xlink="http://www.w3.org/1999/xlink" x="0px" y="0px"
	 width="500px" height="100px" viewBox="0 0 500 100" enable-background="new 0 0 500 100" xml:space="preserve">
<g>
	<path fill="#12100B" d="M251.009,70.854h12.792v3.306h-7.943v2.439h7.337v3.11h-7.337v3.085h8.116v3.453h-12.965V70.854z
		 M229.904,70.854h13.547v3.101l-8.75,8.956h8.973v3.337H229.08v-3.239l8.548-8.849h-7.724V70.854z M207.195,70.854h4.507
		l5.774,8.53v-8.53h4.532v15.394h-4.532l-5.76-8.495v8.495h-4.521V70.854z M186.472,70.854h12.792v3.306h-8.026v2.439h7.388v3.11
		h-7.388v3.085h8.197v3.453h-12.963V70.854z M169.363,77.031h2.069c0.168,0,0.564-0.07,1.26-0.147
		c0.225-0.072,0.525-0.171,0.791-0.542c0.152-0.228,0.212-0.476,0.212-0.862c0-0.436-0.098-0.894-0.464-1.149
		c-0.338-0.189-0.875-0.352-1.749-0.352h-2.121V77.031z M164.627,86.247V70.854h7.883c1.503,0,2.677,0.085,3.393,0.337
		c0.786,0.288,1.457,0.69,1.927,1.408c0.458,0.736,0.635,1.57,0.635,2.521c0,0.867-0.14,1.621-0.506,2.25
		c-0.399,0.519-0.874,1.111-1.439,1.401c-0.426,0.343-1.051,0.565-1.689,0.663c0.525,0.156,0.948,0.36,1.249,0.589
		c0.14,0.158,0.44,0.346,0.671,0.822c0.343,0.368,0.624,0.673,0.723,0.956l2.246,4.445h-5.308l-2.565-4.737
		c-0.34-0.58-0.66-1.023-0.846-1.17c-0.383-0.186-0.763-0.327-1.204-0.327h-0.434v6.234H164.627z M151.22,70.854h4.765v15.394
		h-4.765V70.854z M131.489,70.854h11.729v3.315h-6.959v2.694h5.993v3.119h-5.993v6.265h-4.769V70.854z"/>
	<polygon fill="#12100B" points="9.853,14.071 36.368,14.071 36.368,20.988 27.447,20.988 27.447,42.297 18.782,42.297 
		18.782,20.988 9.853,20.988 	"/>
	<polygon fill="#12100B" points="466.237,14.071 489.605,14.071 489.605,19.999 475.018,19.999 475.018,24.526 488.539,24.526 
		488.539,30.252 475.018,30.252 475.018,35.961 490.146,35.961 490.146,42.297 466.237,42.297 	"/>
	<rect x="308.497" y="14.072" fill="#12100B" width="8.661" height="28.225"/>
	<polygon fill="#12100B" points="126.042,14.071 149.329,14.071 149.329,19.999 134.708,19.999 134.708,24.526 148.35,24.526 
		148.35,30.252 134.708,30.252 134.708,35.961 149.713,35.961 149.713,42.297 126.042,42.297 	"/>
	<path fill="#12100B" d="M206.539,36.182h-3.657v-5.653h3.83c3.11,0,4.683,0.353,4.683,2.718
		C211.396,36.064,209.691,36.182,206.539,36.182 M202.882,19.763h2.855c3.109,0,4.704,0.535,4.704,2.739
		c0,2.004-1.595,2.612-4.704,2.612h-2.855V19.763z M214.86,27.296c2.878-1.194,4.311-3.695,4.311-6.331
		c0-3.342-2.222-6.894-9.072-6.894h-16.161v28.387h16.956c5.097,0,9.429-3.45,9.429-8.159
		C220.323,30.66,218.965,28.844,214.86,27.296"/>
	<path fill="#12100B" d="M361.255,35.605h-2.396V20.785h2.421c4.65,0,6.205,3.688,6.205,7.323
		C367.484,33.184,365.544,35.605,361.255,35.605 M362.564,14.071h-12.427v28.212h14.09c8.514,0,11.979-7.375,11.979-13.744
		C376.206,21.959,372.438,14.071,362.564,14.071"/>
	<path fill="#12100B" d="M434.74,25.979h-13.632v5.948h5.915v2.728c-9.467,4.821-12.269-1.503-12.269-6.607
		c0-4.74,0.779-8.807,7.705-8.474c1.525,0.128,3.385,1.381,3.385,3.24l8.548-1.581c-2.468-8.18-9.119-7.804-13.294-7.804
		c-10.476,0-15.082,6.324-15.082,14.817c0,7.115,3.711,14.229,14.573,14.229c2.887,0,7.164,0.603,14.15-4.369V25.979z"/>
	<path fill="#12100B" d="M262.34,25.516h-2.356v-5.633h2.614c2.771,0,5.5,0.338,5.5,2.839
		C268.098,25.253,265.198,25.516,262.34,25.516 M275.106,34.991c-1.316-2.906-3.059-4.27-4.792-5.151
		c4.426-1.15,6.344-4.727,6.344-7.766c0-6.195-4.313-8.002-11.108-8.002h-14.274v28.211h8.873V30.88h0.962
		c2.409,0,3.288,2.202,5.919,7.391l2.03,4.011h9.97L275.106,34.991z"/>
	<polygon fill="#12100B" points="66.802,14.071 75.465,14.071 75.465,23.869 84.931,23.869 84.931,14.071 93.857,14.071 
		93.857,42.297 84.931,42.297 84.931,30.833 75.465,30.833 75.465,42.297 66.802,42.297 	"/>
	<rect x="293.58" y="70.535" fill="#12100B" width="4.321" height="15.813"/>
	<path fill="#12100B" d="M320.021,76.069c0-0.625-0.189-1.146-0.571-1.568c-0.379-0.422-0.867-0.633-1.461-0.633
		c-0.486,0-0.889,0.12-1.202,0.36c-0.315,0.238-0.544,0.526-0.686,0.866c-0.141,0.338-0.21,0.663-0.21,0.975
		c0,0.722,0.203,1.258,0.61,1.604c0.405,0.346,0.881,0.519,1.42,0.519c0.509,0,0.92-0.117,1.231-0.355
		c0.313-0.234,0.534-0.513,0.667-0.831C319.953,76.686,320.021,76.373,320.021,76.069 M324.137,76.582
		c0,1.194-0.259,2.389-0.773,3.579c-0.519,1.198-1.255,2.342-2.209,3.437s-2.062,2.088-3.323,2.976l-3.906-1.275
		c1.813-1.543,3.152-2.97,4.021-4.277c-0.282,0.076-0.633,0.113-1.052,0.113c-0.926,0-1.778-0.212-2.554-0.639
		c-0.776-0.426-1.396-1.032-1.861-1.818c-0.462-0.788-0.693-1.684-0.693-2.675c0-0.731,0.14-1.436,0.421-2.113
		c0.282-0.675,0.695-1.287,1.243-1.839c0.549-0.544,1.198-0.969,1.953-1.272c0.749-0.305,1.576-0.457,2.474-0.457
		c1.003,0,1.904,0.171,2.702,0.513c0.796,0.342,1.461,0.812,1.979,1.404c0.521,0.593,0.914,1.259,1.18,2.001
		C324.004,74.979,324.137,75.761,324.137,76.582"/>
	<path fill="#12100B" d="M342.278,80.814c0-0.729-0.205-1.269-0.61-1.614c-0.409-0.346-0.885-0.519-1.433-0.519
		c-0.724,0-1.253,0.23-1.593,0.688c-0.336,0.461-0.506,0.943-0.506,1.444c0,0.608,0.195,1.125,0.588,1.553
		c0.391,0.425,0.872,0.638,1.442,0.638c0.486,0,0.885-0.118,1.198-0.354c0.312-0.236,0.541-0.522,0.689-0.862
		C342.203,81.452,342.278,81.127,342.278,80.814 M346.385,80.885c0,0.729-0.145,1.433-0.43,2.113
		c-0.285,0.683-0.698,1.293-1.237,1.83c-0.539,0.543-1.186,0.962-1.938,1.267c-0.755,0.306-1.585,0.458-2.497,0.458
		c-1.316,0-2.449-0.292-3.399-0.872c-0.952-0.583-1.668-1.351-2.141-2.305c-0.476-0.954-0.712-1.979-0.712-3.074
		c0-0.89,0.146-1.785,0.445-2.687c0.298-0.904,0.727-1.79,1.294-2.671c0.566-0.879,1.226-1.698,1.979-2.462
		c0.754-0.765,1.615-1.493,2.59-2.187l3.9,1.291c-0.623,0.533-1.162,1.017-1.618,1.452c-0.456,0.437-0.891,0.893-1.302,1.365
		c-0.409,0.471-0.779,0.954-1.106,1.449c0.29-0.077,0.641-0.115,1.047-0.115c0.931,0,1.785,0.213,2.564,0.64
		c0.78,0.426,1.401,1.03,1.861,1.813C346.15,78.975,346.385,79.871,346.385,80.885"/>
	<path fill="#12100B" d="M364.465,76.069c0-0.625-0.19-1.146-0.571-1.568c-0.379-0.422-0.867-0.633-1.459-0.633
		c-0.488,0-0.889,0.12-1.204,0.36c-0.315,0.238-0.544,0.526-0.684,0.866c-0.143,0.338-0.212,0.663-0.212,0.975
		c0,0.722,0.203,1.258,0.61,1.604s0.881,0.519,1.42,0.519c0.509,0,0.92-0.117,1.231-0.355c0.313-0.234,0.533-0.513,0.667-0.831
		C364.396,76.686,364.465,76.373,364.465,76.069 M368.581,76.582c0,1.194-0.259,2.389-0.773,3.579
		c-0.519,1.198-1.255,2.342-2.207,3.437c-0.956,1.095-2.063,2.088-3.327,2.976l-3.901-1.275c1.811-1.543,3.149-2.97,4.018-4.277
		c-0.282,0.076-0.633,0.113-1.052,0.113c-0.926,0-1.778-0.212-2.555-0.639c-0.775-0.426-1.395-1.032-1.858-1.818
		c-0.464-0.788-0.695-1.684-0.695-2.675c0-0.731,0.139-1.436,0.421-2.113c0.281-0.675,0.694-1.287,1.243-1.839
		c0.548-0.544,1.198-0.969,1.949-1.272c0.753-0.305,1.579-0.457,2.478-0.457c1.004,0,1.904,0.171,2.702,0.513
		s1.457,0.812,1.979,1.404c0.521,0.593,0.914,1.259,1.181,2.001C368.447,74.979,368.581,75.761,368.581,76.582"/>
</g>
</svg>
